<svg width="480" height="240" viewBox="0 0 480 240" fill="none" xmlns="http://www.w3.org/2000/svg">
  <rect width="480" height="240" rx="20" fill="#F8FAFC"/>
  <rect x="36" y="28" width="408" height="184" rx="16" fill="#FFFFFF" stroke="#E2E8F0" stroke-width="2"/>
  <rect x="60" y="54" width="144" height="18" rx="6" fill="#CBD5E1"/>
  <rect x="60" y="88" width="360" height="1" fill="#E2E8F0"/>
  <rect x="60" y="102" width="80" height="12" rx="6" fill="#E2E8F0"/>
  <rect x="160" y="102" width="120" height="12" rx="6" fill="#E2E8F0"/>
  <rect x="300" y="102" width="84" height="12" rx="6" fill="#E2E8F0"/>
  <rect x="60" y="124" width="80" height="12" rx="6" fill="#E2E8F0"/>
  <rect x="160" y="124" width="120" height="12" rx="6" fill="#E2E8F0"/>
  <rect x="300" y="124" width="64" height="12" rx="6" fill="#FECACA"/>
  <rect x="60" y="146" width="80" height="12" rx="6" fill="#E2E8F0"/>
  <rect x="160" y="146" width="120" height="12" rx="6" fill="#E2E8F0"/>
  <rect x="300" y="146" width="64" height="12" rx="6" fill="#BBF7D0"/>
  <circle cx="406" cy="164" r="20" fill="#E0E7FF"/>
  <path d="M398 165L404 171L416 158" stroke="#4F46E5" stroke-width="4" stroke-linecap="round" stroke-linejoin="round"/>
</svg>
